<svg width="131" height="42" viewBox="0 0 131 42" fill="none" xmlns="http://www.w3.org/2000/svg">
<g clip-path="url(#clip0_253_6861)">
<path d="M32.9039 20.6009L31.9659 24.1009H13.6539L8.66992 5.50537H12.2959L16.3384 20.6009H32.9039Z" fill="#AD7E5C"/>
<path d="M31.4024 26.2012L30.4644 29.7012H9.60792L8.66992 26.2012H31.4024Z" fill="#518581"/>
<path d="M29.9003 31.8008L28.9623 35.3008H14.5913L13.6533 31.8008H29.9003Z" fill="#A6D8D1"/>
</g>
<path d="M54 12.2162H57.264V27.2162H64.92V30.0962H54V12.2162Z" fill="#151411"/>
<path d="M70.7272 30.3842C69.3512 30.3842 68.2552 30.0482 67.4392 29.3762C66.6392 28.7042 66.2393 27.7922 66.2393 26.6402C66.2393 25.5362 66.6153 24.6242 67.3673 23.9042C68.1193 23.1842 69.2472 22.7042 70.7512 22.4642L74.6392 21.8402V21.4082C74.6392 20.8322 74.4153 20.3602 73.9673 19.9922C73.5353 19.6242 72.9593 19.4402 72.2393 19.4402C71.5673 19.4402 70.9672 19.6242 70.4392 19.9922C69.9272 20.3442 69.5512 20.8162 69.3112 21.4082L66.7432 20.1602C67.1272 19.1362 67.8312 18.3122 68.8552 17.6882C69.8792 17.0642 71.0472 16.7522 72.3592 16.7522C73.4152 16.7522 74.3512 16.9522 75.1672 17.3522C75.9992 17.7362 76.6392 18.2882 77.0872 19.0082C77.5512 19.7122 77.7833 20.5122 77.7833 21.4082V30.0962H74.8073V28.7042C73.7833 29.8242 72.4232 30.3842 70.7272 30.3842ZM69.5033 26.5202C69.5033 26.9682 69.6712 27.3282 70.0072 27.6002C70.3432 27.8562 70.7752 27.9842 71.3032 27.9842C72.2792 27.9842 73.0793 27.6802 73.7033 27.0722C74.3273 26.4482 74.6392 25.6802 74.6392 24.7682V24.2402L71.3512 24.7922C70.7272 24.9202 70.2632 25.1282 69.9592 25.4162C69.6552 25.6882 69.5033 26.0562 69.5033 26.5202Z" fill="#151411"/>
<path d="M80.6891 11.9282H83.8331V30.0962H80.6891V11.9282Z" fill="#151411"/>
<path d="M90.696 30.3842C89.32 30.3842 88.224 30.0482 87.408 29.3762C86.608 28.7042 86.208 27.7922 86.208 26.6402C86.208 25.5362 86.584 24.6242 87.336 23.9042C88.088 23.1842 89.216 22.7042 90.72 22.4642L94.608 21.8402V21.4082C94.608 20.8322 94.384 20.3602 93.936 19.9922C93.504 19.6242 92.928 19.4402 92.208 19.4402C91.536 19.4402 90.936 19.6242 90.408 19.9922C89.896 20.3442 89.52 20.8162 89.28 21.4082L86.712 20.1602C87.096 19.1362 87.8 18.3122 88.824 17.6882C89.848 17.0642 91.016 16.7522 92.328 16.7522C93.384 16.7522 94.32 16.9522 95.136 17.3522C95.968 17.7362 96.608 18.2882 97.056 19.0082C97.52 19.7122 97.752 20.5122 97.752 21.4082V30.0962H94.776V28.7042C93.752 29.8242 92.392 30.3842 90.696 30.3842ZM89.472 26.5202C89.472 26.9682 89.64 27.3282 89.976 27.6002C90.312 27.8562 90.744 27.9842 91.272 27.9842C92.248 27.9842 93.048 27.6802 93.672 27.0722C94.296 26.4482 94.608 25.6802 94.608 24.7682V24.2402L91.32 24.7922C90.696 24.9202 90.232 25.1282 89.928 25.4162C89.624 25.6882 89.472 26.0562 89.472 26.5202Z" fill="#151411"/>
<path d="M105.554 30.3602C104.242 30.3602 103.082 30.0482 102.074 29.4242C101.082 28.8002 100.378 27.9442 99.9619 26.8562L102.29 25.6562C102.642 26.3602 103.106 26.9122 103.682 27.3122C104.274 27.6962 104.922 27.8882 105.626 27.8882C106.234 27.8882 106.706 27.7682 107.042 27.5282C107.394 27.2722 107.57 26.9282 107.57 26.4962C107.57 26.1282 107.426 25.8242 107.138 25.5842C106.85 25.3282 106.474 25.1602 106.01 25.0802L103.874 24.7202C102.77 24.4322 101.914 23.9442 101.306 23.2562C100.714 22.5522 100.418 21.7282 100.418 20.7842C100.418 20.0002 100.626 19.3042 101.042 18.6962C101.458 18.0722 102.034 17.5922 102.77 17.2562C103.522 16.9202 104.37 16.7522 105.314 16.7522C106.514 16.7522 107.57 17.0402 108.482 17.6162C109.394 18.1762 110.058 18.9602 110.474 19.9682L108.146 21.1682C107.89 20.6082 107.498 20.1602 106.97 19.8242C106.442 19.4882 105.858 19.3202 105.218 19.3202C104.69 19.3202 104.266 19.4402 103.946 19.6802C103.642 19.9202 103.49 20.2322 103.49 20.6162C103.49 21.3202 104.018 21.7922 105.074 22.0322L107.162 22.4162C108.266 22.7202 109.122 23.2162 109.73 23.9042C110.338 24.5922 110.642 25.4082 110.642 26.3522C110.642 27.1362 110.426 27.8322 109.994 28.4402C109.578 29.0482 108.986 29.5202 108.218 29.8562C107.45 30.1922 106.562 30.3602 105.554 30.3602Z" fill="#151411"/>
<path d="M112.986 17.0402H116.13V30.0962H112.986V17.0402ZM112.746 13.4402C112.746 12.8642 112.906 12.4162 113.226 12.0962C113.546 11.7762 113.986 11.6162 114.546 11.6162C115.122 11.6162 115.57 11.7762 115.89 12.0962C116.21 12.4162 116.37 12.8642 116.37 13.4402C116.37 14.0002 116.21 14.4402 115.89 14.7602C115.586 15.0802 115.138 15.2402 114.546 15.2402C113.986 15.2402 113.546 15.0802 113.226 14.7602C112.906 14.4402 112.746 14.0002 112.746 13.4402Z" fill="#151411"/>
<path d="M122.993 30.3842C121.617 30.3842 120.521 30.0482 119.705 29.3762C118.905 28.7042 118.505 27.7922 118.505 26.6402C118.505 25.5362 118.881 24.6242 119.633 23.9042C120.385 23.1842 121.513 22.7042 123.017 22.4642L126.905 21.8402V21.4082C126.905 20.8322 126.681 20.3602 126.233 19.9922C125.801 19.6242 125.225 19.4402 124.505 19.4402C123.833 19.4402 123.233 19.6242 122.705 19.9922C122.193 20.3442 121.817 20.8162 121.577 21.4082L119.009 20.1602C119.393 19.1362 120.097 18.3122 121.121 17.6882C122.145 17.0642 123.313 16.7522 124.625 16.7522C125.681 16.7522 126.617 16.9522 127.433 17.3522C128.265 17.7362 128.905 18.2882 129.353 19.0082C129.817 19.7122 130.049 20.5122 130.049 21.4082V30.0962H127.073V28.7042C126.049 29.8242 124.689 30.3842 122.993 30.3842ZM121.769 26.5202C121.769 26.9682 121.937 27.3282 122.273 27.6002C122.609 27.8562 123.041 27.9842 123.569 27.9842C124.545 27.9842 125.345 27.6802 125.969 27.0722C126.593 26.4482 126.905 25.6802 126.905 24.7682V24.2402L123.617 24.7922C122.993 24.9202 122.529 25.1282 122.225 25.4162C121.921 25.6882 121.769 26.0562 121.769 26.5202Z" fill="#151411"/>
<defs>
<clipPath id="clip0_253_6861">
<rect width="42" height="42" fill="white"/>
</clipPath>
</defs>
</svg>
